<?xml version="1.0" encoding="UTF-8"?>
<svg data-bbox="0.015 0 119.785 25" viewBox="0 0 119.8 25" xmlns="http://www.w3.org/2000/svg" data-type="color">
    <g>
        <path d="M30.8 12.5V7.8c0-.8-.1-1.7-.2-2.2h2.1c-.1.5-.2 1.3-.2 2.2v1.5h4.6V7.8c0-.8-.1-1.7-.2-2.2h2.2c0 .5-.1 1.3-.1 2.2v4.7c0 .8.1 1.7.2 2.2H37c.1-.5.2-1.3.2-2.2V11h-4.6v1.5c0 .8.1 1.7.2 2.2h-2.2c.1-.6.2-1.4.2-2.2" fill="#ffffff" data-color="1"/>
        <path d="M43.7 12.5V7.8c0-.8-.1-1.7-.2-2.2h7l.3 1.9c-.3-.2-.7-.3-1.6-.3h-3.8v2h3.3c.6 0 1 0 1.3-.1V11h-4.6v1.9h3.8c1.3 0 1.7-.2 2-.3l-.3 2h-7.4c.1-.5.2-1.3.2-2.1" fill="#ffffff" data-color="1"/>
        <path d="M55.6 12.5V7.8c0-.8-.1-1.7-.2-2.2h4c2.7 0 4.6 1.7 4.6 4.5s-1.9 4.5-4.6 4.5h-4c.1-.5.2-1.3.2-2.1m3.8.4c1.5 0 2.7-1.1 2.7-2.8s-1.2-2.8-2.7-2.8h-2.1v5.5c0 .1 2.1.1 2.1.1" fill="#ffffff" data-color="1"/>
        <path d="M67.8 10.2c0-2.9 2-4.7 4.7-4.7s4.7 1.8 4.7 4.7-2 4.7-4.7 4.7c-2.7-.1-4.7-1.9-4.7-4.7m7.6 0c0-2-1.3-3.3-2.9-3.3s-2.9 1.3-2.9 3.3 1.3 3.3 2.9 3.3c1.6-.2 2.9-1.4 2.9-3.3" fill="#ffffff" data-color="1"/>
        <path d="M81.3 12.5V7.8c0-.8-.1-1.7-.2-2.2H83l4.7 6.4h.2V7.8c0-.8-.1-1.8-.2-2.2H90c-.1.5-.2 1.3-.2 2.2v6.9h-1.7l-4.8-6.5H83v4.2c0 .9.1 1.8.2 2.3H81c.2-.6.3-1.4.3-2.2" fill="#ffffff" data-color="1"/>
        <path d="M94.5 12.5V7.8c0-.8-.1-1.7-.2-2.2h2.2c-.1.5-.2 1.3-.2 2.2v4.7c0 .8.1 1.7.2 2.2h-2.2c.1-.6.2-1.4.2-2.2" fill="#ffffff" data-color="1"/>
        <path d="m100.4 13.9.1-2c1.1.8 2.7 1.2 3.9 1.2s2.2-.3 2.2-1c0-1.8-5.9-.3-5.9-3.9 0-1.6 1.6-2.8 3.9-2.8 1.3 0 2.5.3 3.3.6v2c-.7-.4-1.8-.8-3.2-.8-1.3 0-2.1.3-2.1 1 0 1.8 6 .4 6 3.9 0 1.7-1.6 2.8-3.9 2.8-1.4-.1-3.2-.5-4.3-1" fill="#ffffff" data-color="1"/>
        <path d="M115 12.5V7.4h-1.8c-.7 0-1 .1-1.4.3l.3-2h7.4l.3 2c-.3-.2-.8-.3-1.4-.3h-1.7v5.1c0 .8.1 1.7.2 2.2h-2.2c.2-.6.3-1.4.3-2.2" fill="#ffffff" data-color="1"/>
        <path d="m18.9 6.2-4.9-3V1l.8-.9h-2.4v6.5l-3-1.7V0H6.9l.8.9v2.9c-2.6-1-5.6-.2-7 2.2-1.4 2.5-.6 5.8 1.9 7.2l4.9 2.9v2.4l-.8.9h2.4v-6.6l2.9 1.7v4.9h2.4l-.8-.9v-3.1c.8.3 1.5.5 2.3.5 1.8 0 3.6-.9 4.6-2.6 1.8-2.4.9-5.6-1.6-7.1M3.5 11.8c-1.7-1-2.3-3.2-1.3-4.9.5-.8 1.3-1.4 2.2-1.7.9-.2 1.8-.1 2.7.4l.5.4v8.3zm5.8-.8V6.9l2.9 1.7v4zm10 1.6c-.5.8-1.3 1.4-2.2 1.7s-1.8.1-2.7-.3l-.5-.3V5.2L18 7.7c1.7 1 2.3 3.2 1.3 4.9" fill="#b9945d" data-color="2"/>
        <path d="M57.8 20.2h1.8c.5 0 .9.2 1.2.4.2.2.3.4.3.8 0 .7-.4 1-.8 1.1.5.2 1 .5 1 1.2 0 .8-.6 1.3-1.6 1.3h-1.9zm2.9 1.3c0-.5-.4-.8-1.1-.8h-1.5v1.8h1.5c.6-.1 1.1-.4 1.1-1m-1.1 1.2h-1.5v1.9h1.6c.8 0 1.3-.3 1.3-1-.1-.5-.6-.9-1.4-.9" fill="#ffffff" data-color="1"/>
        <path d="M65.2 20.2h.3l2 4.8h-.3l-.6-1.3H64l-.6 1.3H63zm1.3 3.1-1.2-2.8-1.2 2.8z" fill="#ffffff" data-color="1"/>
        <path d="M69.7 20.2h1.8c.5 0 1 .2 1.3.5.2.3.3.5.3.8 0 .8-.5 1.3-1.3 1.3l1.4 2h-.4L71.4 23H70v1.9h-.3zm1.8 2.5c.8 0 1.3-.4 1.3-1.1s-.4-1-1.3-1H70v2.1z" fill="#ffffff" data-color="1"/>
    </g>
</svg>
