<svg viewBox="0 0 480 260" xmlns="http://www.w3.org/2000/svg" role="img" aria-hidden="true">
  <!-- Built from real coordinates (OpenStreetMap/Nominatim geocoding), not
       eyeballed: Hedonist (Vukovarska cesta 31 / Eurodom) sits ~590 m
       almost due south of Tvrđa — its closest labelled neighbour — and
       ~1.55 km ESE of Trg Ante Starčevića (Gornji Grad centar), which is
       mostly WEST. The Hedonist pin is fixed at the canvas centre (240,145)
       and every other point is plotted from it at one uniform scale
       (~0.145 px/m, so 500 m = 72.5 px, drawn honestly on the scale bar) —
       centering the pin instead of the river meant compressing Drava and
       Tvrđa into a shorter band up top, so there's more (unmarked, generic)
       infill south of the pin than north of it, matching real distances. -->
  <defs>
    <linearGradient id="water" x1="0" y1="0" x2="0" y2="1">
      <stop offset="0" stop-color="#2b4a5a"/>
      <stop offset="1" stop-color="#1d3441"/>
    </linearGradient>
    <radialGradient id="pinGlow" cx="50%" cy="50%" r="50%">
      <stop offset="0" stop-color="#e4c88f" stop-opacity="0.5"/>
      <stop offset="1" stop-color="#e4c88f" stop-opacity="0"/>
    </radialGradient>
    <radialGradient id="vignette" cx="50%" cy="50%" r="75%">
      <stop offset="0.62" stop-color="#000" stop-opacity="0"/>
      <stop offset="1" stop-color="#000" stop-opacity="0.4"/>
    </radialGradient>
    <filter id="grain">
      <feTurbulence type="fractalNoise" baseFrequency="0.9" numOctaves="2" stitchTiles="stitch" result="noise"/>
      <feColorMatrix in="noise" type="matrix" values="0 0 0 0 0  0 0 0 0 0  0 0 0 0 0  0 0 0 0.04 0"/>
    </filter>
    <!-- Tvrđa's real claim to fame: a Baroque star fort with a perfectly
         regular street grid inside the walls — this clip lets that grid
         render only inside the star outline below -->
    <clipPath id="tvrdjaClip">
      <path d="M0 -18 L5 -8 L16 -11 L10 -2 L18 6 L7 6 L3 18 L-3 15 L-10 18 L-8 6 L-18 4 L-10 -4 L-16 -12 L-5 -9 Z"/>
    </clipPath>
  </defs>

  <rect width="480" height="260" fill="#1c140e"/>

  <!-- north bank: floodplain green, dips lower (more clearance) over
       centar on the left, rises tighter over Tvrđa on the right, since
       Tvrđa really does sit closer to the water -->
  <path d="M0 0 H480 V14 C 420,12 380,18 330,20 C 260,23 200,17 120,22 C 70,25 30,20 0,24 Z" fill="#242c1a"/>
  <g fill="#314021" opacity="0.9">
    <circle cx="50" cy="10" r="3"/><circle cx="66" cy="14" r="2.6"/>
    <circle cx="220" cy="9" r="3"/><circle cx="236" cy="6" r="2.6"/>
    <circle cx="360" cy="6" r="3"/><circle cx="388" cy="9" r="2.6"/>
  </g>

  <!-- Drava -->
  <path d="M0 24 C 30,20 70,25 120,22 C 200,17 260,23 330,20 C 380,18 420,12 480,14
           L480 30 C 420,28 380,24 330,28 C 260,33 200,28 120,32 C 70,35 30,32 0,36 Z"
        fill="url(#water)"/>
  <g stroke="#4a7088" stroke-width="0.6" fill="none" opacity="0.35">
    <path d="M15 24 C 50,22 90,28 130,26"/>
    <path d="M180 28 C 230,24 280,22 320,22"/>
    <path d="M360 20 C 400,20 440,24 470,26"/>
  </g>
  <text x="205" y="22" font-family="Georgia, 'Times New Roman', serif" font-style="italic"
        font-size="8.5" fill="#9fc2d2" opacity="0.85" transform="rotate(-2 205 22)">Drava</text>

  <!-- pedestrian suspension bridge, compressed into the shallow river band -->
  <g stroke="#d8c49a" stroke-width="0.9" fill="none" opacity="0.85">
    <path d="M131 33 L 133 9"/>
    <path d="M131 28 L 127 15 M133 22 L 139 12"/>
    <path d="M127 15 L 129 11 M139 12 L 141 8"/>
  </g>

  <!-- city blocks: generic infill between the named landmarks, tilted to
       loosely follow whichever corridor (Europska avenija to the north,
       Vukovarska cesta to the south) they sit nearest. More of them sit
       south of the pin than north, because Hedonist really is that much
       closer to the river/Tvrđa side than to open ground the other way. -->
  <g fill="#2a1e14" stroke="#17110d" stroke-width="0.6" opacity="0.85">
    <rect x="58" y="82" width="22" height="14" transform="rotate(-3 69 89)"/>
    <rect x="106" y="87" width="20" height="13" transform="rotate(-2 116 93)"/>
    <rect x="184" y="86" width="20" height="13" transform="rotate(2 194 92)"/>
    <rect x="278" y="76" width="20" height="13" transform="rotate(-1 288 82)"/>
    <rect x="336" y="90" width="22" height="14" transform="rotate(0 347 97)"/>
    <rect x="396" y="105" width="22" height="14"/>
    <rect x="48" y="115" width="22" height="14" transform="rotate(5 59 122)"/>
    <rect x="312" y="118" width="22" height="14" transform="rotate(-2 323 125)"/>
    <rect x="60" y="163" width="24" height="16" transform="rotate(3 72 171)"/>
    <rect x="112" y="182" width="26" height="16" transform="rotate(4 125 190)"/>
    <rect x="320" y="176" width="26" height="16" transform="rotate(-3 333 184)"/>
    <rect x="378" y="160" width="24" height="15" transform="rotate(-2 390 167)"/>
    <rect x="88" y="212" width="24" height="16" transform="rotate(2 100 220)"/>
    <rect x="188" y="222" width="24" height="16" transform="rotate(1 200 230)"/>
    <rect x="288" y="222" width="24" height="16"/>
    <rect x="386" y="206" width="22" height="15" transform="rotate(-1 397 213)"/>
  </g>

  <!-- Perivoj kralja Tomislava (park) -->
  <path d="M150 42 C 164,37 179,39 183,47 C 187,55 178,64 164,66 C 150,68 143,58 150,42 Z"
        fill="#33421f" opacity="0.9"/>
  <circle cx="162" cy="49" r="3" fill="#3f5226"/><circle cx="172" cy="54" r="3" fill="#3f5226"/>
  <text x="166" y="84" text-anchor="middle" font-family="Jost, 'Segoe UI', sans-serif" font-size="5.5"
        letter-spacing="0.04em" fill="#dce8c8" opacity="0.55">PERIVOJ TOMISLAVA</text>

  <!-- streets: thin grid first, then the two named arteries -->
  <g stroke="#f4ecdb" stroke-opacity="0.14" stroke-width="1" fill="none">
    <path d="M85 60 L 78 232"/>
    <path d="M148 64 L 145 234"/>
    <path d="M228 62 L 226 230"/>
    <path d="M302 66 L 306 232"/>
    <path d="M368 78 L 372 224"/>
    <path d="M414 92 L 418 218"/>
  </g>
  <g stroke="#f4ecdb" stroke-opacity="0.09" stroke-width="0.7" fill="none">
    <path d="M40 104 C 150,99 290,97 440,108"/>
    <path d="M40 200 C 160,204 300,198 450,206"/>
  </g>

  <!-- Europska avenija: centar -> Tvrđa (real bearing: almost due east,
       barely rising) -->
  <path d="M40 45 C 90,35 165,36 222,54" stroke="#c9a063" stroke-opacity="0.55" stroke-width="1.8" fill="none"/>
  <text x="80" y="57" font-family="Jost, 'Segoe UI', sans-serif" font-size="6.5" letter-spacing="0.07em"
        fill="#f4ecdb" opacity="0.5" transform="rotate(-4 80 57)">EUROPSKA AVENIJA</text>

  <!-- Vukovarska cesta: the artery Hedonist lives on, routed through its
       real bearing toward centar (~19° north of due west), pin dead
       centre of the canvas -->
  <path d="M28 88 C 65,98 100,104 143,111 C 180,122 210,132 240,145 C 300,166 380,172 480,168"
        stroke="#e4c88f" stroke-opacity="0.85" stroke-width="2.6" fill="none"/>
  <text x="96" y="89" font-family="Jost, 'Segoe UI', sans-serif" font-size="6.5" letter-spacing="0.09em"
        fill="#e4c88f" opacity="0.75" transform="rotate(19 96 89)">VUKOVARSKA CESTA</text>

  <!-- centar: Trg Ante Starčevića + co-cathedral spire -->
  <g>
    <rect x="30" y="38" width="10" height="9" fill="#3d2e20" stroke="#c9a063" stroke-opacity="0.5" stroke-width="0.7"/>
    <path d="M44 38 l3 -10.5 l3 10.5 Z" fill="#c9a063" opacity="0.9"/>
    <rect x="45.5" y="38" width="3" height="8" fill="#3d2e20"/>
    <text x="22" y="61" font-family="Jost, 'Segoe UI', sans-serif" font-size="6.5" letter-spacing="0.1em"
          fill="#f4ecdb" opacity="0.65">CENTAR</text>
  </g>

  <!-- Tvrđa: star fortress right on the river bank, ~590 m due north of
       Hedonist — its nearest named landmark, not a distant one -->
  <g transform="translate(250,60)">
    <path d="M0 -18 L5 -8 L16 -11 L10 -2 L18 6 L7 6 L3 18 L-3 15 L-10 18 L-8 6 L-18 4 L-10 -4 L-16 -12 L-5 -9 Z"
          fill="#2e2114" stroke="#c9a063" stroke-width="1.1" stroke-linejoin="round" opacity="0.95"/>
    <g clip-path="url(#tvrdjaClip)" stroke="#5a4632" stroke-width="0.5" opacity="0.75">
      <path d="M-14 -8 L10 -8"/>
      <path d="M-15 -1 L14 -1"/>
      <path d="M-14 4 L14 4"/>
      <path d="M-6 -15 L-6 15"/>
      <path d="M0 -16 L0 16"/>
      <path d="M6 -14 L6 16"/>
    </g>
    <g fill="#4a3826">
      <rect x="-6" y="-5" width="5" height="4"/>
      <rect x="1" y="-5" width="5" height="4"/>
      <rect x="-6" y="0.5" width="5" height="4"/>
      <rect x="1" y="0.5" width="5" height="4"/>
    </g>
    <path d="M-0.5 -5 l2 -4 l2 4 Z" fill="#c9a063"/>
    <text x="0" y="28" text-anchor="middle" font-family="Jost, 'Segoe UI', sans-serif" font-size="7"
          letter-spacing="0.16em" fill="#e4c88f" font-weight="600">TVRĐA</text>
  </g>

  <!-- Hedonist pin, Vukovarska 31 (Eurodom) — fixed dead centre of the
       canvas; everything above is measured from this point -->
  <circle cx="240" cy="145" r="26" fill="url(#pinGlow)"/>
  <g transform="translate(240,145)">
    <path d="M0 -15 C7.2 -15 13 -9.1 13 -1.9 C13 6.3 3.4 17 0 21.3 C-3.4 17 -13 6.3 -13 -1.9 C-13 -9.1 -7.2 -15 0 -15 Z"
          fill="#c9a063" stroke="#17110d" stroke-width="1.4"/>
    <circle cx="0" cy="-1.9" r="4.3" fill="#17110d"/>
  </g>
  <text x="240" y="184" text-anchor="middle" font-family="Jost, 'Segoe UI', sans-serif" font-size="9" font-weight="700"
        letter-spacing="0.08em" fill="#e4c88f">HEDONIST</text>
  <text x="240" y="194" text-anchor="middle" font-family="Jost, 'Segoe UI', sans-serif" font-size="6.5"
        letter-spacing="0.05em" fill="#f4ecdb" opacity="0.7">Vukovarska cesta 31</text>

  <!-- compass + scale (500 m bar is drawn at the map's real scale) -->
  <g transform="translate(444,205)" opacity="0.85">
    <circle r="10" fill="none" stroke="#c9a063" stroke-width="1"/>
    <path d="M0 -7 L2.7 3.5 L0 1.3 L-2.7 3.5 Z" fill="#e4c88f"/>
    <text y="-13.5" text-anchor="middle" font-family="Jost, 'Segoe UI', sans-serif" font-size="7"
          fill="#e4c88f" font-weight="600">N</text>
  </g>
  <g transform="translate(22,238)" opacity="0.6">
    <path d="M0 0 H72.5" stroke="#f4ecdb" stroke-width="1"/>
    <path d="M0 -3 V3 M72.5 -3 V3" stroke="#f4ecdb" stroke-width="1"/>
    <text x="78.5" y="3" font-family="Jost, 'Segoe UI', sans-serif" font-size="7" fill="#f4ecdb">500 m</text>
  </g>

  <rect width="480" height="260" fill="url(#vignette)"/>
  <rect width="480" height="260" filter="url(#grain)"/>
</svg>
